<mxfile host="app.diagrams.net" agent="Mozilla/5.0 (Windows NT 10.0; Win64; x64) AppleWebKit/537.36 (KHTML, like Gecko) Chrome/129.0.0.0 Safari/537.36" version="24.7.17" pages="3">
  <diagram id="QvYiQ_ofHQNn3cuxqC3h" name="Sơ đồ tổng">
    <mxGraphModel dx="1354" dy="655" grid="1" gridSize="10" guides="1" tooltips="1" connect="1" arrows="1" fold="1" page="1" pageScale="1" pageWidth="827" pageHeight="1169" math="0" shadow="0">
      <root>
        <mxCell id="0" />
        <mxCell id="1" parent="0" />
        <mxCell id="m8A-s2W3jy1TMA8blEqZ-1" value="quản lý nhân sự và tiền lương trong Odoo" style="rounded=0;whiteSpace=wrap;html=1;" vertex="1" parent="1">
          <mxGeometry x="880" y="100" width="160" height="60" as="geometry" />
        </mxCell>
        <mxCell id="m8A-s2W3jy1TMA8blEqZ-2" value="Quản lý hồ sơ nhân viên" style="rounded=0;whiteSpace=wrap;html=1;" vertex="1" parent="1">
          <mxGeometry x="80" y="240" width="160" height="60" as="geometry" />
        </mxCell>
        <mxCell id="m8A-s2W3jy1TMA8blEqZ-3" value="Quản lý chấm công và thời gian làm việc" style="rounded=0;whiteSpace=wrap;html=1;" vertex="1" parent="1">
          <mxGeometry x="280" y="240" width="160" height="60" as="geometry" />
        </mxCell>
        <mxCell id="m8A-s2W3jy1TMA8blEqZ-4" value="Quản lý tiền lương" style="rounded=0;whiteSpace=wrap;html=1;" vertex="1" parent="1">
          <mxGeometry x="480" y="240" width="160" height="60" as="geometry" />
        </mxCell>
        <mxCell id="m8A-s2W3jy1TMA8blEqZ-5" value="Quản lý phúc lợi và bảo hiểm" style="rounded=0;whiteSpace=wrap;html=1;" vertex="1" parent="1">
          <mxGeometry x="680" y="240" width="160" height="60" as="geometry" />
        </mxCell>
        <mxCell id="m8A-s2W3jy1TMA8blEqZ-6" value="Quản lý tuyển dụng" style="rounded=0;whiteSpace=wrap;html=1;" vertex="1" parent="1">
          <mxGeometry x="880" y="240" width="160" height="60" as="geometry" />
        </mxCell>
        <mxCell id="m8A-s2W3jy1TMA8blEqZ-7" value="Quản lý đào tạo và phát triển" style="rounded=0;whiteSpace=wrap;html=1;" vertex="1" parent="1">
          <mxGeometry x="1081" y="240" width="160" height="60" as="geometry" />
        </mxCell>
        <mxCell id="m8A-s2W3jy1TMA8blEqZ-8" value="Đánh giá hiệu suất nhân viên" style="rounded=0;whiteSpace=wrap;html=1;" vertex="1" parent="1">
          <mxGeometry x="1280" y="240" width="160" height="60" as="geometry" />
        </mxCell>
        <mxCell id="m8A-s2W3jy1TMA8blEqZ-9" value="Quản lý nghỉ phép và phúc lợi" style="rounded=0;whiteSpace=wrap;html=1;" vertex="1" parent="1">
          <mxGeometry x="1480" y="240" width="160" height="60" as="geometry" />
        </mxCell>
        <mxCell id="m8A-s2W3jy1TMA8blEqZ-10" value="Quản lý quan hệ lao động" style="rounded=0;whiteSpace=wrap;html=1;" vertex="1" parent="1">
          <mxGeometry x="1680" y="240" width="160" height="60" as="geometry" />
        </mxCell>
        <mxCell id="C9_2zDunX3bSwDf8wTzA-1" value="Lưu trữ thông tin nhân viên" style="rounded=0;whiteSpace=wrap;html=1;" vertex="1" parent="1">
          <mxGeometry x="100" y="360" width="140" height="60" as="geometry" />
        </mxCell>
        <mxCell id="C9_2zDunX3bSwDf8wTzA-2" value="Quản lý hợp đồng lao động" style="rounded=0;whiteSpace=wrap;html=1;" vertex="1" parent="1">
          <mxGeometry x="100" y="480" width="140" height="60" as="geometry" />
        </mxCell>
        <mxCell id="C9_2zDunX3bSwDf8wTzA-3" value="Chấm công tự động" style="rounded=0;whiteSpace=wrap;html=1;" vertex="1" parent="1">
          <mxGeometry x="300" y="360" width="140" height="60" as="geometry" />
        </mxCell>
        <mxCell id="C9_2zDunX3bSwDf8wTzA-4" value="Quản lý lịch làm việc" style="rounded=0;whiteSpace=wrap;html=1;" vertex="1" parent="1">
          <mxGeometry x="300" y="480" width="140" height="60" as="geometry" />
        </mxCell>
        <mxCell id="C9_2zDunX3bSwDf8wTzA-5" value="Tính lương tự động" style="rounded=0;whiteSpace=wrap;html=1;" vertex="1" parent="1">
          <mxGeometry x="500" y="360" width="140" height="60" as="geometry" />
        </mxCell>
        <mxCell id="C9_2zDunX3bSwDf8wTzA-6" value="Quản lý bảng lương" style="rounded=0;whiteSpace=wrap;html=1;" vertex="1" parent="1">
          <mxGeometry x="500" y="480" width="140" height="60" as="geometry" />
        </mxCell>
        <mxCell id="C9_2zDunX3bSwDf8wTzA-7" value="Quản lý thanh toán lương" style="rounded=0;whiteSpace=wrap;html=1;" vertex="1" parent="1">
          <mxGeometry x="500" y="600" width="140" height="60" as="geometry" />
        </mxCell>
        <mxCell id="C9_2zDunX3bSwDf8wTzA-8" value="Quản lý phúc lợi nhân viên" style="rounded=0;whiteSpace=wrap;html=1;" vertex="1" parent="1">
          <mxGeometry x="700" y="360" width="140" height="60" as="geometry" />
        </mxCell>
        <mxCell id="C9_2zDunX3bSwDf8wTzA-9" value="Theo dõi bảo hiểm và thuế" style="rounded=0;whiteSpace=wrap;html=1;" vertex="1" parent="1">
          <mxGeometry x="700" y="480" width="140" height="60" as="geometry" />
        </mxCell>
        <mxCell id="C9_2zDunX3bSwDf8wTzA-10" value="Quản lý quy trình tuyển dụng" style="rounded=0;whiteSpace=wrap;html=1;" vertex="1" parent="1">
          <mxGeometry x="900" y="360" width="140" height="60" as="geometry" />
        </mxCell>
        <mxCell id="C9_2zDunX3bSwDf8wTzA-11" value="Lưu trữ hồ sơ ứng viên" style="rounded=0;whiteSpace=wrap;html=1;" vertex="1" parent="1">
          <mxGeometry x="900" y="480" width="140" height="60" as="geometry" />
        </mxCell>
        <mxCell id="C9_2zDunX3bSwDf8wTzA-12" value="Thiết lập KPI và mục tiêu" style="rounded=0;whiteSpace=wrap;html=1;" vertex="1" parent="1">
          <mxGeometry x="1300" y="360" width="140" height="60" as="geometry" />
        </mxCell>
        <mxCell id="C9_2zDunX3bSwDf8wTzA-13" value="Quản lý quy trình đánh giá" style="rounded=0;whiteSpace=wrap;html=1;" vertex="1" parent="1">
          <mxGeometry x="1300" y="480" width="140" height="60" as="geometry" />
        </mxCell>
        <mxCell id="C9_2zDunX3bSwDf8wTzA-14" value="Lập kế hoạch đào tạo" style="rounded=0;whiteSpace=wrap;html=1;" vertex="1" parent="1">
          <mxGeometry x="1100.5" y="360" width="140" height="60" as="geometry" />
        </mxCell>
        <mxCell id="C9_2zDunX3bSwDf8wTzA-15" value="Quản lý chứng chỉ và kỹ năng" style="rounded=0;whiteSpace=wrap;html=1;" vertex="1" parent="1">
          <mxGeometry x="1100.5" y="480" width="140" height="60" as="geometry" />
        </mxCell>
        <mxCell id="C9_2zDunX3bSwDf8wTzA-16" value="&#xa;Quản lý nghỉ phép&#xa;&#xa;" style="rounded=0;whiteSpace=wrap;html=1;" vertex="1" parent="1">
          <mxGeometry x="1500" y="360" width="140" height="60" as="geometry" />
        </mxCell>
        <mxCell id="C9_2zDunX3bSwDf8wTzA-17" value="Quản lý chế độ phúc lợi" style="rounded=0;whiteSpace=wrap;html=1;" vertex="1" parent="1">
          <mxGeometry x="1500" y="480" width="140" height="60" as="geometry" />
        </mxCell>
        <mxCell id="C9_2zDunX3bSwDf8wTzA-18" value="Theo dõi kỷ luật và khen thưởng" style="rounded=0;whiteSpace=wrap;html=1;" vertex="1" parent="1">
          <mxGeometry x="1700" y="360" width="140" height="60" as="geometry" />
        </mxCell>
        <mxCell id="C9_2zDunX3bSwDf8wTzA-19" value="Giải quyết tranh chấp" style="rounded=0;whiteSpace=wrap;html=1;" vertex="1" parent="1">
          <mxGeometry x="1700" y="480" width="140" height="60" as="geometry" />
        </mxCell>
        <mxCell id="C9_2zDunX3bSwDf8wTzA-20" value="" style="endArrow=none;html=1;rounded=0;exitX=0;exitY=0.5;exitDx=0;exitDy=0;" edge="1" parent="1" source="m8A-s2W3jy1TMA8blEqZ-2">
          <mxGeometry width="50" height="50" relative="1" as="geometry">
            <mxPoint x="250" y="320" as="sourcePoint" />
            <mxPoint x="60" y="270" as="targetPoint" />
          </mxGeometry>
        </mxCell>
        <mxCell id="C9_2zDunX3bSwDf8wTzA-21" value="" style="endArrow=none;html=1;rounded=0;" edge="1" parent="1">
          <mxGeometry width="50" height="50" relative="1" as="geometry">
            <mxPoint x="60" y="510" as="sourcePoint" />
            <mxPoint x="60" y="270" as="targetPoint" />
          </mxGeometry>
        </mxCell>
        <mxCell id="C9_2zDunX3bSwDf8wTzA-22" value="" style="endArrow=none;html=1;rounded=0;entryX=0;entryY=0.5;entryDx=0;entryDy=0;" edge="1" parent="1" target="C9_2zDunX3bSwDf8wTzA-2">
          <mxGeometry width="50" height="50" relative="1" as="geometry">
            <mxPoint x="60" y="510" as="sourcePoint" />
            <mxPoint x="110" y="460" as="targetPoint" />
          </mxGeometry>
        </mxCell>
        <mxCell id="C9_2zDunX3bSwDf8wTzA-23" value="" style="endArrow=none;html=1;rounded=0;entryX=0;entryY=0.5;entryDx=0;entryDy=0;" edge="1" parent="1" target="C9_2zDunX3bSwDf8wTzA-1">
          <mxGeometry width="50" height="50" relative="1" as="geometry">
            <mxPoint x="60" y="390" as="sourcePoint" />
            <mxPoint x="110" y="520" as="targetPoint" />
          </mxGeometry>
        </mxCell>
        <mxCell id="C9_2zDunX3bSwDf8wTzA-24" value="" style="endArrow=none;html=1;rounded=0;exitX=0;exitY=0.5;exitDx=0;exitDy=0;" edge="1" parent="1" source="m8A-s2W3jy1TMA8blEqZ-3">
          <mxGeometry width="50" height="50" relative="1" as="geometry">
            <mxPoint x="90" y="280" as="sourcePoint" />
            <mxPoint x="260" y="270" as="targetPoint" />
          </mxGeometry>
        </mxCell>
        <mxCell id="C9_2zDunX3bSwDf8wTzA-25" value="" style="endArrow=none;html=1;rounded=0;" edge="1" parent="1">
          <mxGeometry width="50" height="50" relative="1" as="geometry">
            <mxPoint x="260" y="510" as="sourcePoint" />
            <mxPoint x="260" y="270" as="targetPoint" />
          </mxGeometry>
        </mxCell>
        <mxCell id="C9_2zDunX3bSwDf8wTzA-26" value="" style="endArrow=none;html=1;rounded=0;entryX=0;entryY=0.5;entryDx=0;entryDy=0;" edge="1" parent="1">
          <mxGeometry width="50" height="50" relative="1" as="geometry">
            <mxPoint x="260" y="389.66" as="sourcePoint" />
            <mxPoint x="300" y="389.66" as="targetPoint" />
          </mxGeometry>
        </mxCell>
        <mxCell id="C9_2zDunX3bSwDf8wTzA-27" value="" style="endArrow=none;html=1;rounded=0;entryX=0;entryY=0.5;entryDx=0;entryDy=0;" edge="1" parent="1">
          <mxGeometry width="50" height="50" relative="1" as="geometry">
            <mxPoint x="260" y="509.65999999999997" as="sourcePoint" />
            <mxPoint x="300" y="509.65999999999997" as="targetPoint" />
          </mxGeometry>
        </mxCell>
        <mxCell id="C9_2zDunX3bSwDf8wTzA-28" value="" style="endArrow=none;html=1;rounded=0;" edge="1" parent="1">
          <mxGeometry width="50" height="50" relative="1" as="geometry">
            <mxPoint x="460" y="630" as="sourcePoint" />
            <mxPoint x="460" y="270" as="targetPoint" />
          </mxGeometry>
        </mxCell>
        <mxCell id="C9_2zDunX3bSwDf8wTzA-29" value="" style="endArrow=none;html=1;rounded=0;exitX=0;exitY=0.5;exitDx=0;exitDy=0;" edge="1" parent="1" source="C9_2zDunX3bSwDf8wTzA-5">
          <mxGeometry width="50" height="50" relative="1" as="geometry">
            <mxPoint x="270" y="519.66" as="sourcePoint" />
            <mxPoint x="460" y="390" as="targetPoint" />
          </mxGeometry>
        </mxCell>
        <mxCell id="C9_2zDunX3bSwDf8wTzA-30" value="" style="endArrow=none;html=1;rounded=0;exitX=0;exitY=0.5;exitDx=0;exitDy=0;" edge="1" parent="1">
          <mxGeometry width="50" height="50" relative="1" as="geometry">
            <mxPoint x="500" y="509.5" as="sourcePoint" />
            <mxPoint x="460" y="509.5" as="targetPoint" />
          </mxGeometry>
        </mxCell>
        <mxCell id="C9_2zDunX3bSwDf8wTzA-31" value="" style="endArrow=none;html=1;rounded=0;exitX=0;exitY=0.5;exitDx=0;exitDy=0;" edge="1" parent="1">
          <mxGeometry width="50" height="50" relative="1" as="geometry">
            <mxPoint x="500" y="629.5" as="sourcePoint" />
            <mxPoint x="460" y="629.5" as="targetPoint" />
          </mxGeometry>
        </mxCell>
        <mxCell id="C9_2zDunX3bSwDf8wTzA-32" value="" style="endArrow=none;html=1;rounded=0;exitX=0;exitY=0.5;exitDx=0;exitDy=0;" edge="1" parent="1">
          <mxGeometry width="50" height="50" relative="1" as="geometry">
            <mxPoint x="480" y="269.83" as="sourcePoint" />
            <mxPoint x="460" y="269.83" as="targetPoint" />
          </mxGeometry>
        </mxCell>
        <mxCell id="C9_2zDunX3bSwDf8wTzA-34" value="" style="endArrow=none;html=1;rounded=0;exitX=0;exitY=0.5;exitDx=0;exitDy=0;" edge="1" parent="1">
          <mxGeometry width="50" height="50" relative="1" as="geometry">
            <mxPoint x="680" y="269.67" as="sourcePoint" />
            <mxPoint x="660" y="269.67" as="targetPoint" />
          </mxGeometry>
        </mxCell>
        <mxCell id="C9_2zDunX3bSwDf8wTzA-35" value="" style="endArrow=none;html=1;rounded=0;" edge="1" parent="1">
          <mxGeometry width="50" height="50" relative="1" as="geometry">
            <mxPoint x="660" y="509.67" as="sourcePoint" />
            <mxPoint x="660" y="269.67" as="targetPoint" />
          </mxGeometry>
        </mxCell>
        <mxCell id="C9_2zDunX3bSwDf8wTzA-36" value="" style="endArrow=none;html=1;rounded=0;entryX=0;entryY=0.5;entryDx=0;entryDy=0;" edge="1" parent="1">
          <mxGeometry width="50" height="50" relative="1" as="geometry">
            <mxPoint x="660" y="389.33000000000004" as="sourcePoint" />
            <mxPoint x="700" y="389.33000000000004" as="targetPoint" />
          </mxGeometry>
        </mxCell>
        <mxCell id="C9_2zDunX3bSwDf8wTzA-37" value="" style="endArrow=none;html=1;rounded=0;entryX=0;entryY=0.5;entryDx=0;entryDy=0;" edge="1" parent="1">
          <mxGeometry width="50" height="50" relative="1" as="geometry">
            <mxPoint x="660" y="509.33" as="sourcePoint" />
            <mxPoint x="700" y="509.33" as="targetPoint" />
          </mxGeometry>
        </mxCell>
        <mxCell id="C9_2zDunX3bSwDf8wTzA-38" value="" style="endArrow=none;html=1;rounded=0;exitX=0;exitY=0.5;exitDx=0;exitDy=0;" edge="1" parent="1">
          <mxGeometry width="50" height="50" relative="1" as="geometry">
            <mxPoint x="880" y="269.67" as="sourcePoint" />
            <mxPoint x="860" y="269.67" as="targetPoint" />
          </mxGeometry>
        </mxCell>
        <mxCell id="C9_2zDunX3bSwDf8wTzA-39" value="" style="endArrow=none;html=1;rounded=0;" edge="1" parent="1">
          <mxGeometry width="50" height="50" relative="1" as="geometry">
            <mxPoint x="860" y="509.67" as="sourcePoint" />
            <mxPoint x="860" y="269.67" as="targetPoint" />
          </mxGeometry>
        </mxCell>
        <mxCell id="C9_2zDunX3bSwDf8wTzA-40" value="" style="endArrow=none;html=1;rounded=0;entryX=0;entryY=0.5;entryDx=0;entryDy=0;" edge="1" parent="1">
          <mxGeometry width="50" height="50" relative="1" as="geometry">
            <mxPoint x="860" y="389.33000000000004" as="sourcePoint" />
            <mxPoint x="900" y="389.33000000000004" as="targetPoint" />
          </mxGeometry>
        </mxCell>
        <mxCell id="C9_2zDunX3bSwDf8wTzA-41" value="" style="endArrow=none;html=1;rounded=0;entryX=0;entryY=0.5;entryDx=0;entryDy=0;" edge="1" parent="1">
          <mxGeometry width="50" height="50" relative="1" as="geometry">
            <mxPoint x="860" y="509.33" as="sourcePoint" />
            <mxPoint x="900" y="509.33" as="targetPoint" />
          </mxGeometry>
        </mxCell>
        <mxCell id="C9_2zDunX3bSwDf8wTzA-42" value="" style="endArrow=none;html=1;rounded=0;exitX=0;exitY=0.5;exitDx=0;exitDy=0;" edge="1" parent="1">
          <mxGeometry width="50" height="50" relative="1" as="geometry">
            <mxPoint x="1080.5" y="270" as="sourcePoint" />
            <mxPoint x="1060.5" y="270" as="targetPoint" />
          </mxGeometry>
        </mxCell>
        <mxCell id="C9_2zDunX3bSwDf8wTzA-43" value="" style="endArrow=none;html=1;rounded=0;" edge="1" parent="1">
          <mxGeometry width="50" height="50" relative="1" as="geometry">
            <mxPoint x="1060.5" y="510.00000000000006" as="sourcePoint" />
            <mxPoint x="1060.5" y="270" as="targetPoint" />
          </mxGeometry>
        </mxCell>
        <mxCell id="C9_2zDunX3bSwDf8wTzA-44" value="" style="endArrow=none;html=1;rounded=0;entryX=0;entryY=0.5;entryDx=0;entryDy=0;" edge="1" parent="1">
          <mxGeometry width="50" height="50" relative="1" as="geometry">
            <mxPoint x="1060.5" y="389.66" as="sourcePoint" />
            <mxPoint x="1100.5" y="389.66" as="targetPoint" />
          </mxGeometry>
        </mxCell>
        <mxCell id="C9_2zDunX3bSwDf8wTzA-45" value="" style="endArrow=none;html=1;rounded=0;entryX=0;entryY=0.5;entryDx=0;entryDy=0;" edge="1" parent="1">
          <mxGeometry width="50" height="50" relative="1" as="geometry">
            <mxPoint x="1060.5" y="509.6599999999999" as="sourcePoint" />
            <mxPoint x="1100.5" y="509.6599999999999" as="targetPoint" />
          </mxGeometry>
        </mxCell>
        <mxCell id="C9_2zDunX3bSwDf8wTzA-46" value="" style="endArrow=none;html=1;rounded=0;exitX=0;exitY=0.5;exitDx=0;exitDy=0;" edge="1" parent="1">
          <mxGeometry width="50" height="50" relative="1" as="geometry">
            <mxPoint x="1280" y="269.67" as="sourcePoint" />
            <mxPoint x="1260" y="269.67" as="targetPoint" />
          </mxGeometry>
        </mxCell>
        <mxCell id="C9_2zDunX3bSwDf8wTzA-47" value="" style="endArrow=none;html=1;rounded=0;" edge="1" parent="1">
          <mxGeometry width="50" height="50" relative="1" as="geometry">
            <mxPoint x="1260" y="509.6700000000001" as="sourcePoint" />
            <mxPoint x="1260" y="269.67" as="targetPoint" />
          </mxGeometry>
        </mxCell>
        <mxCell id="C9_2zDunX3bSwDf8wTzA-48" value="" style="endArrow=none;html=1;rounded=0;entryX=0;entryY=0.5;entryDx=0;entryDy=0;" edge="1" parent="1">
          <mxGeometry width="50" height="50" relative="1" as="geometry">
            <mxPoint x="1260" y="389.33000000000004" as="sourcePoint" />
            <mxPoint x="1300" y="389.33000000000004" as="targetPoint" />
          </mxGeometry>
        </mxCell>
        <mxCell id="C9_2zDunX3bSwDf8wTzA-49" value="" style="endArrow=none;html=1;rounded=0;entryX=0;entryY=0.5;entryDx=0;entryDy=0;" edge="1" parent="1">
          <mxGeometry width="50" height="50" relative="1" as="geometry">
            <mxPoint x="1260" y="509.3299999999999" as="sourcePoint" />
            <mxPoint x="1300" y="509.3299999999999" as="targetPoint" />
          </mxGeometry>
        </mxCell>
        <mxCell id="C9_2zDunX3bSwDf8wTzA-50" value="" style="endArrow=none;html=1;rounded=0;exitX=0;exitY=0.5;exitDx=0;exitDy=0;" edge="1" parent="1">
          <mxGeometry width="50" height="50" relative="1" as="geometry">
            <mxPoint x="1680" y="269.46" as="sourcePoint" />
            <mxPoint x="1660" y="269.46" as="targetPoint" />
          </mxGeometry>
        </mxCell>
        <mxCell id="C9_2zDunX3bSwDf8wTzA-51" value="" style="endArrow=none;html=1;rounded=0;" edge="1" parent="1">
          <mxGeometry width="50" height="50" relative="1" as="geometry">
            <mxPoint x="1660" y="509.46000000000004" as="sourcePoint" />
            <mxPoint x="1660" y="269.46" as="targetPoint" />
          </mxGeometry>
        </mxCell>
        <mxCell id="C9_2zDunX3bSwDf8wTzA-52" value="" style="endArrow=none;html=1;rounded=0;entryX=0;entryY=0.5;entryDx=0;entryDy=0;" edge="1" parent="1">
          <mxGeometry width="50" height="50" relative="1" as="geometry">
            <mxPoint x="1660" y="389.12" as="sourcePoint" />
            <mxPoint x="1700" y="389.12" as="targetPoint" />
          </mxGeometry>
        </mxCell>
        <mxCell id="C9_2zDunX3bSwDf8wTzA-53" value="" style="endArrow=none;html=1;rounded=0;entryX=0;entryY=0.5;entryDx=0;entryDy=0;" edge="1" parent="1">
          <mxGeometry width="50" height="50" relative="1" as="geometry">
            <mxPoint x="1660" y="509.1199999999999" as="sourcePoint" />
            <mxPoint x="1700" y="509.1199999999999" as="targetPoint" />
          </mxGeometry>
        </mxCell>
        <mxCell id="C9_2zDunX3bSwDf8wTzA-54" value="" style="endArrow=none;html=1;rounded=0;exitX=0;exitY=0.5;exitDx=0;exitDy=0;" edge="1" parent="1">
          <mxGeometry width="50" height="50" relative="1" as="geometry">
            <mxPoint x="1480" y="269.75" as="sourcePoint" />
            <mxPoint x="1460" y="269.75" as="targetPoint" />
          </mxGeometry>
        </mxCell>
        <mxCell id="C9_2zDunX3bSwDf8wTzA-55" value="" style="endArrow=none;html=1;rounded=0;" edge="1" parent="1">
          <mxGeometry width="50" height="50" relative="1" as="geometry">
            <mxPoint x="1460" y="509.75000000000006" as="sourcePoint" />
            <mxPoint x="1460" y="269.75" as="targetPoint" />
          </mxGeometry>
        </mxCell>
        <mxCell id="C9_2zDunX3bSwDf8wTzA-56" value="" style="endArrow=none;html=1;rounded=0;entryX=0;entryY=0.5;entryDx=0;entryDy=0;" edge="1" parent="1">
          <mxGeometry width="50" height="50" relative="1" as="geometry">
            <mxPoint x="1460" y="389.41" as="sourcePoint" />
            <mxPoint x="1500" y="389.41" as="targetPoint" />
          </mxGeometry>
        </mxCell>
        <mxCell id="C9_2zDunX3bSwDf8wTzA-57" value="" style="endArrow=none;html=1;rounded=0;entryX=0;entryY=0.5;entryDx=0;entryDy=0;" edge="1" parent="1">
          <mxGeometry width="50" height="50" relative="1" as="geometry">
            <mxPoint x="1460" y="509.4099999999999" as="sourcePoint" />
            <mxPoint x="1500" y="509.4099999999999" as="targetPoint" />
          </mxGeometry>
        </mxCell>
        <mxCell id="C9_2zDunX3bSwDf8wTzA-58" value="" style="endArrow=none;html=1;rounded=0;" edge="1" parent="1">
          <mxGeometry width="50" height="50" relative="1" as="geometry">
            <mxPoint x="960" y="200" as="sourcePoint" />
            <mxPoint x="960" y="160" as="targetPoint" />
          </mxGeometry>
        </mxCell>
        <mxCell id="C9_2zDunX3bSwDf8wTzA-59" value="" style="endArrow=none;html=1;rounded=0;exitX=0.5;exitY=0;exitDx=0;exitDy=0;" edge="1" parent="1" source="m8A-s2W3jy1TMA8blEqZ-2">
          <mxGeometry width="50" height="50" relative="1" as="geometry">
            <mxPoint x="580" y="240" as="sourcePoint" />
            <mxPoint x="160" y="200" as="targetPoint" />
          </mxGeometry>
        </mxCell>
        <mxCell id="C9_2zDunX3bSwDf8wTzA-60" value="" style="endArrow=none;html=1;rounded=0;" edge="1" parent="1">
          <mxGeometry width="50" height="50" relative="1" as="geometry">
            <mxPoint x="160" y="200" as="sourcePoint" />
            <mxPoint x="1760" y="200" as="targetPoint" />
          </mxGeometry>
        </mxCell>
        <mxCell id="C9_2zDunX3bSwDf8wTzA-61" value="" style="endArrow=none;html=1;rounded=0;exitX=0.5;exitY=0;exitDx=0;exitDy=0;" edge="1" parent="1" source="m8A-s2W3jy1TMA8blEqZ-10">
          <mxGeometry width="50" height="50" relative="1" as="geometry">
            <mxPoint x="1710" y="250" as="sourcePoint" />
            <mxPoint x="1760" y="200" as="targetPoint" />
          </mxGeometry>
        </mxCell>
        <mxCell id="C9_2zDunX3bSwDf8wTzA-62" value="" style="endArrow=none;html=1;rounded=0;exitX=0.5;exitY=0;exitDx=0;exitDy=0;" edge="1" parent="1">
          <mxGeometry width="50" height="50" relative="1" as="geometry">
            <mxPoint x="1559.63" y="240" as="sourcePoint" />
            <mxPoint x="1559.63" y="200" as="targetPoint" />
          </mxGeometry>
        </mxCell>
        <mxCell id="C9_2zDunX3bSwDf8wTzA-63" value="" style="endArrow=none;html=1;rounded=0;exitX=0.5;exitY=0;exitDx=0;exitDy=0;" edge="1" parent="1">
          <mxGeometry width="50" height="50" relative="1" as="geometry">
            <mxPoint x="1359.63" y="240" as="sourcePoint" />
            <mxPoint x="1359.63" y="200" as="targetPoint" />
          </mxGeometry>
        </mxCell>
        <mxCell id="C9_2zDunX3bSwDf8wTzA-64" value="" style="endArrow=none;html=1;rounded=0;exitX=0.5;exitY=0;exitDx=0;exitDy=0;" edge="1" parent="1">
          <mxGeometry width="50" height="50" relative="1" as="geometry">
            <mxPoint x="1160.63" y="240" as="sourcePoint" />
            <mxPoint x="1160.63" y="200" as="targetPoint" />
          </mxGeometry>
        </mxCell>
        <mxCell id="C9_2zDunX3bSwDf8wTzA-65" value="" style="endArrow=none;html=1;rounded=0;exitX=0.5;exitY=0;exitDx=0;exitDy=0;" edge="1" parent="1">
          <mxGeometry width="50" height="50" relative="1" as="geometry">
            <mxPoint x="959.5700000000002" y="240" as="sourcePoint" />
            <mxPoint x="959.5700000000002" y="200" as="targetPoint" />
          </mxGeometry>
        </mxCell>
        <mxCell id="C9_2zDunX3bSwDf8wTzA-66" value="" style="endArrow=none;html=1;rounded=0;exitX=0.5;exitY=0;exitDx=0;exitDy=0;" edge="1" parent="1">
          <mxGeometry width="50" height="50" relative="1" as="geometry">
            <mxPoint x="759.5700000000002" y="240" as="sourcePoint" />
            <mxPoint x="759.5700000000002" y="200" as="targetPoint" />
          </mxGeometry>
        </mxCell>
        <mxCell id="C9_2zDunX3bSwDf8wTzA-67" value="" style="endArrow=none;html=1;rounded=0;exitX=0.5;exitY=0;exitDx=0;exitDy=0;" edge="1" parent="1">
          <mxGeometry width="50" height="50" relative="1" as="geometry">
            <mxPoint x="559.5700000000002" y="240" as="sourcePoint" />
            <mxPoint x="559.5700000000002" y="200" as="targetPoint" />
          </mxGeometry>
        </mxCell>
        <mxCell id="C9_2zDunX3bSwDf8wTzA-68" value="" style="endArrow=none;html=1;rounded=0;exitX=0.5;exitY=0;exitDx=0;exitDy=0;" edge="1" parent="1">
          <mxGeometry width="50" height="50" relative="1" as="geometry">
            <mxPoint x="359.57000000000016" y="240" as="sourcePoint" />
            <mxPoint x="359.57000000000016" y="200" as="targetPoint" />
          </mxGeometry>
        </mxCell>
      </root>
    </mxGraphModel>
  </diagram>
  <diagram name="Thien" id="dvhnbiW41tITDRndL7pf">
    <mxGraphModel dx="1753" dy="448" grid="1" gridSize="10" guides="1" tooltips="1" connect="1" arrows="1" fold="1" page="1" pageScale="1" pageWidth="827" pageHeight="1169" math="0" shadow="0">
      <root>
        <mxCell id="0" />
        <mxCell id="1" parent="0" />
        <mxCell id="UOAQJkc5fwZsPBONH712-1" value="Vertical Container" style="swimlane;whiteSpace=wrap;html=1;" vertex="1" parent="1">
          <mxGeometry x="-200" y="670" width="800" height="830" as="geometry" />
        </mxCell>
        <mxCell id="oMXl3L-jes-uX_w32ErL-1" value="admin" style="shape=umlActor;verticalLabelPosition=bottom;verticalAlign=top;html=1;outlineConnect=0;" parent="UOAQJkc5fwZsPBONH712-1" vertex="1">
          <mxGeometry x="220" y="140" width="30" height="60" as="geometry" />
        </mxCell>
        <mxCell id="oMXl3L-jes-uX_w32ErL-3" value="Quản lý quan hệ lao động" style="ellipse;whiteSpace=wrap;html=1;" parent="UOAQJkc5fwZsPBONH712-1" vertex="1">
          <mxGeometry x="340" y="140" width="140" height="70" as="geometry" />
        </mxCell>
        <mxCell id="oMXl3L-jes-uX_w32ErL-4" value="" style="endArrow=open;endFill=1;endSize=12;html=1;rounded=0;exitX=0.5;exitY=0.5;exitDx=0;exitDy=0;exitPerimeter=0;" parent="UOAQJkc5fwZsPBONH712-1" edge="1" source="oMXl3L-jes-uX_w32ErL-1">
          <mxGeometry width="160" relative="1" as="geometry">
            <mxPoint x="250" y="170" as="sourcePoint" />
            <mxPoint x="340" y="170" as="targetPoint" />
          </mxGeometry>
        </mxCell>
        <mxCell id="oMXl3L-jes-uX_w32ErL-5" value="" style="endArrow=open;endFill=1;endSize=12;html=1;rounded=0;entryX=0;entryY=0.5;entryDx=0;entryDy=0;" parent="UOAQJkc5fwZsPBONH712-1" target="oMXl3L-jes-uX_w32ErL-8" edge="1">
          <mxGeometry width="160" relative="1" as="geometry">
            <mxPoint x="480" y="170" as="sourcePoint" />
            <mxPoint x="540" y="110" as="targetPoint" />
          </mxGeometry>
        </mxCell>
        <mxCell id="oMXl3L-jes-uX_w32ErL-6" value="" style="endArrow=open;endFill=1;endSize=12;html=1;rounded=0;entryX=0.007;entryY=0.414;entryDx=0;entryDy=0;entryPerimeter=0;" parent="UOAQJkc5fwZsPBONH712-1" target="oMXl3L-jes-uX_w32ErL-9" edge="1">
          <mxGeometry width="160" relative="1" as="geometry">
            <mxPoint x="480" y="170" as="sourcePoint" />
            <mxPoint x="570" y="170" as="targetPoint" />
          </mxGeometry>
        </mxCell>
        <mxCell id="oMXl3L-jes-uX_w32ErL-8" value="Theo dõi kỷ luật và khen thưởng" style="ellipse;whiteSpace=wrap;html=1;" parent="UOAQJkc5fwZsPBONH712-1" vertex="1">
          <mxGeometry x="550" y="80" width="140" height="70" as="geometry" />
        </mxCell>
        <mxCell id="oMXl3L-jes-uX_w32ErL-9" value="Giải quyết tranh chấp" style="ellipse;whiteSpace=wrap;html=1;" parent="UOAQJkc5fwZsPBONH712-1" vertex="1">
          <mxGeometry x="550" y="200" width="140" height="70" as="geometry" />
        </mxCell>
        <mxCell id="oMXl3L-jes-uX_w32ErL-11" value="admin" style="shape=umlActor;verticalLabelPosition=bottom;verticalAlign=top;html=1;outlineConnect=0;" parent="UOAQJkc5fwZsPBONH712-1" vertex="1">
          <mxGeometry x="200" y="360" width="30" height="60" as="geometry" />
        </mxCell>
        <mxCell id="oMXl3L-jes-uX_w32ErL-12" value="" style="endArrow=open;endFill=1;endSize=12;html=1;rounded=0;exitX=0.5;exitY=0.5;exitDx=0;exitDy=0;exitPerimeter=0;" parent="UOAQJkc5fwZsPBONH712-1" source="oMXl3L-jes-uX_w32ErL-11" edge="1">
          <mxGeometry width="160" relative="1" as="geometry">
            <mxPoint x="260" y="180" as="sourcePoint" />
            <mxPoint x="290" y="390" as="targetPoint" />
          </mxGeometry>
        </mxCell>
        <mxCell id="oMXl3L-jes-uX_w32ErL-13" value="Theo dõi kỷ luật và khen thưởng" style="ellipse;whiteSpace=wrap;html=1;" parent="UOAQJkc5fwZsPBONH712-1" vertex="1">
          <mxGeometry x="290" y="355" width="140" height="70" as="geometry" />
        </mxCell>
        <mxCell id="oMXl3L-jes-uX_w32ErL-14" value="&lt;div style=&quot;font-size: 11px;&quot;&gt;&lt;span style=&quot;background-color: initial;&quot;&gt;&lt;font style=&quot;font-size: 11px;&quot;&gt;Quản lý các quyết định kỷ luật, cảnh cáo, khen&lt;/font&gt;&lt;/span&gt;&lt;/div&gt;&lt;div style=&quot;font-size: 11px;&quot;&gt;&lt;span style=&quot;background-color: initial;&quot;&gt;thưởng,&lt;/span&gt;&lt;/div&gt;" style="ellipse;whiteSpace=wrap;html=1;align=center;" parent="UOAQJkc5fwZsPBONH712-1" vertex="1">
          <mxGeometry x="480" y="320" width="150" height="70" as="geometry" />
        </mxCell>
        <mxCell id="oMXl3L-jes-uX_w32ErL-16" value="chính sách động viên nhân viên" style="ellipse;whiteSpace=wrap;html=1;" parent="UOAQJkc5fwZsPBONH712-1" vertex="1">
          <mxGeometry x="480" y="410" width="140" height="70" as="geometry" />
        </mxCell>
        <mxCell id="oMXl3L-jes-uX_w32ErL-17" value="" style="endArrow=open;endFill=1;endSize=12;html=1;rounded=0;entryX=0;entryY=0.5;entryDx=0;entryDy=0;exitX=1;exitY=0.5;exitDx=0;exitDy=0;" parent="UOAQJkc5fwZsPBONH712-1" source="oMXl3L-jes-uX_w32ErL-13" target="oMXl3L-jes-uX_w32ErL-14" edge="1">
          <mxGeometry width="160" relative="1" as="geometry">
            <mxPoint x="490" y="180" as="sourcePoint" />
            <mxPoint x="561" y="239" as="targetPoint" />
          </mxGeometry>
        </mxCell>
        <mxCell id="oMXl3L-jes-uX_w32ErL-18" value="" style="endArrow=open;endFill=1;endSize=12;html=1;rounded=0;entryX=0;entryY=0.5;entryDx=0;entryDy=0;exitX=1;exitY=0.5;exitDx=0;exitDy=0;" parent="UOAQJkc5fwZsPBONH712-1" source="oMXl3L-jes-uX_w32ErL-13" target="oMXl3L-jes-uX_w32ErL-16" edge="1">
          <mxGeometry width="160" relative="1" as="geometry">
            <mxPoint x="490" y="180" as="sourcePoint" />
            <mxPoint x="560" y="125" as="targetPoint" />
          </mxGeometry>
        </mxCell>
        <mxCell id="oMXl3L-jes-uX_w32ErL-19" value="admin" style="shape=umlActor;verticalLabelPosition=bottom;verticalAlign=top;html=1;outlineConnect=0;" parent="UOAQJkc5fwZsPBONH712-1" vertex="1">
          <mxGeometry x="200" y="560" width="30" height="60" as="geometry" />
        </mxCell>
        <mxCell id="oMXl3L-jes-uX_w32ErL-20" value="" style="endArrow=open;endFill=1;endSize=12;html=1;rounded=0;exitX=0.5;exitY=0.5;exitDx=0;exitDy=0;exitPerimeter=0;" parent="UOAQJkc5fwZsPBONH712-1" source="oMXl3L-jes-uX_w32ErL-19" edge="1">
          <mxGeometry width="160" relative="1" as="geometry">
            <mxPoint x="260" y="380" as="sourcePoint" />
            <mxPoint x="290" y="590" as="targetPoint" />
          </mxGeometry>
        </mxCell>
        <mxCell id="oMXl3L-jes-uX_w32ErL-21" value="Giải quyết tranh chấp" style="ellipse;whiteSpace=wrap;html=1;" parent="UOAQJkc5fwZsPBONH712-1" vertex="1">
          <mxGeometry x="290" y="555" width="140" height="70" as="geometry" />
        </mxCell>
        <mxCell id="oMXl3L-jes-uX_w32ErL-22" value="&lt;div style=&quot;font-size: 11px;&quot;&gt;&lt;span style=&quot;background-color: initial; font-size: 12px;&quot;&gt;Hỗ trợ quản lý&amp;nbsp;&lt;/span&gt;&lt;span style=&quot;background-color: initial; font-size: 12px;&quot;&gt;tranh chấp lao động&lt;/span&gt;&lt;br&gt;&lt;/div&gt;" style="ellipse;whiteSpace=wrap;html=1;align=center;" parent="UOAQJkc5fwZsPBONH712-1" vertex="1">
          <mxGeometry x="480" y="520" width="150" height="70" as="geometry" />
        </mxCell>
        <mxCell id="oMXl3L-jes-uX_w32ErL-23" value="Quản lý vi phạm/mâu thuẫn trong công việc" style="ellipse;whiteSpace=wrap;html=1;" parent="UOAQJkc5fwZsPBONH712-1" vertex="1">
          <mxGeometry x="480" y="610" width="140" height="70" as="geometry" />
        </mxCell>
        <mxCell id="oMXl3L-jes-uX_w32ErL-24" value="" style="endArrow=open;endFill=1;endSize=12;html=1;rounded=0;entryX=0;entryY=0.5;entryDx=0;entryDy=0;exitX=1;exitY=0.5;exitDx=0;exitDy=0;" parent="UOAQJkc5fwZsPBONH712-1" source="oMXl3L-jes-uX_w32ErL-21" target="oMXl3L-jes-uX_w32ErL-22" edge="1">
          <mxGeometry width="160" relative="1" as="geometry">
            <mxPoint x="490" y="380" as="sourcePoint" />
            <mxPoint x="561" y="439" as="targetPoint" />
          </mxGeometry>
        </mxCell>
        <mxCell id="oMXl3L-jes-uX_w32ErL-25" value="" style="endArrow=open;endFill=1;endSize=12;html=1;rounded=0;entryX=0;entryY=0.5;entryDx=0;entryDy=0;exitX=1;exitY=0.5;exitDx=0;exitDy=0;" parent="UOAQJkc5fwZsPBONH712-1" source="oMXl3L-jes-uX_w32ErL-21" target="oMXl3L-jes-uX_w32ErL-23" edge="1">
          <mxGeometry width="160" relative="1" as="geometry">
            <mxPoint x="490" y="380" as="sourcePoint" />
            <mxPoint x="560" y="325" as="targetPoint" />
          </mxGeometry>
        </mxCell>
        <mxCell id="UOAQJkc5fwZsPBONH712-2" value="Vertical Container" style="swimlane;whiteSpace=wrap;html=1;" vertex="1" parent="1">
          <mxGeometry x="620" y="670" width="1030" height="830" as="geometry" />
        </mxCell>
        <mxCell id="8u-JHY7vP-_lhxQzUfMQ-1" value="admin" style="shape=umlActor;verticalLabelPosition=bottom;verticalAlign=top;html=1;outlineConnect=0;" vertex="1" parent="UOAQJkc5fwZsPBONH712-2">
          <mxGeometry x="90" y="135" width="30" height="60" as="geometry" />
        </mxCell>
        <mxCell id="8u-JHY7vP-_lhxQzUfMQ-2" value="Báo cáo và phân tích nhân sự" style="ellipse;whiteSpace=wrap;html=1;" vertex="1" parent="UOAQJkc5fwZsPBONH712-2">
          <mxGeometry x="210" y="135" width="140" height="70" as="geometry" />
        </mxCell>
        <mxCell id="8u-JHY7vP-_lhxQzUfMQ-3" value="" style="endArrow=open;endFill=1;endSize=12;html=1;rounded=0;exitX=0.5;exitY=0.5;exitDx=0;exitDy=0;exitPerimeter=0;" edge="1" parent="UOAQJkc5fwZsPBONH712-2" source="8u-JHY7vP-_lhxQzUfMQ-1">
          <mxGeometry width="160" relative="1" as="geometry">
            <mxPoint x="120" y="165" as="sourcePoint" />
            <mxPoint x="210" y="165" as="targetPoint" />
          </mxGeometry>
        </mxCell>
        <mxCell id="8u-JHY7vP-_lhxQzUfMQ-4" value="" style="endArrow=open;endFill=1;endSize=12;html=1;rounded=0;entryX=0;entryY=0.5;entryDx=0;entryDy=0;" edge="1" parent="UOAQJkc5fwZsPBONH712-2" target="8u-JHY7vP-_lhxQzUfMQ-6">
          <mxGeometry width="160" relative="1" as="geometry">
            <mxPoint x="350" y="165" as="sourcePoint" />
            <mxPoint x="410" y="105" as="targetPoint" />
          </mxGeometry>
        </mxCell>
        <mxCell id="8u-JHY7vP-_lhxQzUfMQ-5" value="" style="endArrow=open;endFill=1;endSize=12;html=1;rounded=0;entryX=0.007;entryY=0.414;entryDx=0;entryDy=0;entryPerimeter=0;" edge="1" parent="UOAQJkc5fwZsPBONH712-2" target="8u-JHY7vP-_lhxQzUfMQ-7">
          <mxGeometry width="160" relative="1" as="geometry">
            <mxPoint x="350" y="165" as="sourcePoint" />
            <mxPoint x="440" y="165" as="targetPoint" />
          </mxGeometry>
        </mxCell>
        <mxCell id="8u-JHY7vP-_lhxQzUfMQ-6" value="Báo cáo nhân sự" style="ellipse;whiteSpace=wrap;html=1;" vertex="1" parent="UOAQJkc5fwZsPBONH712-2">
          <mxGeometry x="420" y="75" width="140" height="70" as="geometry" />
        </mxCell>
        <mxCell id="8u-JHY7vP-_lhxQzUfMQ-7" value="Phân tích dữ liệu nhân sự" style="ellipse;whiteSpace=wrap;html=1;" vertex="1" parent="UOAQJkc5fwZsPBONH712-2">
          <mxGeometry x="420" y="195" width="140" height="70" as="geometry" />
        </mxCell>
      </root>
    </mxGraphModel>
  </diagram>
  <diagram id="G_040rS-rvK46Dy64reg" name="Thanh">
    <mxGraphModel dx="3050" dy="1065" grid="1" gridSize="10" guides="1" tooltips="1" connect="1" arrows="1" fold="1" page="1" pageScale="1" pageWidth="850" pageHeight="1100" math="0" shadow="0">
      <root>
        <mxCell id="0" />
        <mxCell id="1" parent="0" />
        <mxCell id="BlOGmnbrMbq8oMTxmr42-3" style="edgeStyle=orthogonalEdgeStyle;rounded=0;orthogonalLoop=1;jettySize=auto;html=1;entryX=0.5;entryY=0;entryDx=0;entryDy=0;" parent="1" source="1hXFx9EmigmVSkQ63bgH-1" target="1hXFx9EmigmVSkQ63bgH-2" edge="1">
          <mxGeometry relative="1" as="geometry" />
        </mxCell>
        <mxCell id="1hXFx9EmigmVSkQ63bgH-1" value="Administrator" style="shape=umlActor;verticalLabelPosition=bottom;verticalAlign=top;html=1;outlineConnect=0;" parent="1" vertex="1">
          <mxGeometry x="410" y="580" width="30" height="60" as="geometry" />
        </mxCell>
        <mxCell id="BlOGmnbrMbq8oMTxmr42-4" style="edgeStyle=orthogonalEdgeStyle;rounded=0;orthogonalLoop=1;jettySize=auto;html=1;entryX=1;entryY=0.5;entryDx=0;entryDy=0;" parent="1" source="1hXFx9EmigmVSkQ63bgH-2" target="1hXFx9EmigmVSkQ63bgH-3" edge="1">
          <mxGeometry relative="1" as="geometry" />
        </mxCell>
        <mxCell id="BlOGmnbrMbq8oMTxmr42-5" style="edgeStyle=orthogonalEdgeStyle;rounded=0;orthogonalLoop=1;jettySize=auto;html=1;entryX=0.5;entryY=0;entryDx=0;entryDy=0;" parent="1" source="1hXFx9EmigmVSkQ63bgH-2" target="1hXFx9EmigmVSkQ63bgH-4" edge="1">
          <mxGeometry relative="1" as="geometry" />
        </mxCell>
        <mxCell id="1hXFx9EmigmVSkQ63bgH-2" value="Đăng nhập" style="ellipse;whiteSpace=wrap;html=1;" parent="1" vertex="1">
          <mxGeometry x="365" y="720" width="120" height="80" as="geometry" />
        </mxCell>
        <mxCell id="1hXFx9EmigmVSkQ63bgH-3" value="Đăng nhập không thành công" style="ellipse;whiteSpace=wrap;html=1;" parent="1" vertex="1">
          <mxGeometry x="130" y="720" width="120" height="80" as="geometry" />
        </mxCell>
        <mxCell id="1hXFx9EmigmVSkQ63bgH-4" value="Đăng nhập thành công và xác nhận role admin" style="ellipse;whiteSpace=wrap;html=1;" parent="1" vertex="1">
          <mxGeometry x="365" y="840" width="120" height="80" as="geometry" />
        </mxCell>
        <mxCell id="1hXFx9EmigmVSkQ63bgH-5" value="Quản lý thông tin cá nhân" style="ellipse;whiteSpace=wrap;html=1;" parent="1" vertex="1">
          <mxGeometry x="90" y="980" width="120" height="80" as="geometry" />
        </mxCell>
        <mxCell id="1hXFx9EmigmVSkQ63bgH-7" value="Lưu trữ và quản lý các tài liệu pháp lý" style="ellipse;whiteSpace=wrap;html=1;" parent="1" vertex="1">
          <mxGeometry x="365" y="1010" width="120" height="80" as="geometry" />
        </mxCell>
        <mxCell id="1hXFx9EmigmVSkQ63bgH-8" value="Quản lý thông tin về lịch sử công việc" style="ellipse;whiteSpace=wrap;html=1;" parent="1" vertex="1">
          <mxGeometry x="610" y="990" width="120" height="80" as="geometry" />
        </mxCell>
        <mxCell id="BlOGmnbrMbq8oMTxmr42-6" value="" style="endArrow=classic;html=1;rounded=0;exitX=0.5;exitY=1;exitDx=0;exitDy=0;entryX=1;entryY=0.5;entryDx=0;entryDy=0;" parent="1" source="1hXFx9EmigmVSkQ63bgH-4" target="1hXFx9EmigmVSkQ63bgH-5" edge="1">
          <mxGeometry width="50" height="50" relative="1" as="geometry">
            <mxPoint x="315" y="920" as="sourcePoint" />
            <mxPoint x="380" y="900" as="targetPoint" />
          </mxGeometry>
        </mxCell>
        <mxCell id="BlOGmnbrMbq8oMTxmr42-7" value="" style="endArrow=classic;html=1;rounded=0;exitX=0.5;exitY=1;exitDx=0;exitDy=0;entryX=0.5;entryY=0;entryDx=0;entryDy=0;" parent="1" source="1hXFx9EmigmVSkQ63bgH-4" target="1hXFx9EmigmVSkQ63bgH-7" edge="1">
          <mxGeometry width="50" height="50" relative="1" as="geometry">
            <mxPoint x="315" y="920" as="sourcePoint" />
            <mxPoint x="380" y="900" as="targetPoint" />
          </mxGeometry>
        </mxCell>
        <mxCell id="BlOGmnbrMbq8oMTxmr42-8" value="" style="endArrow=classic;html=1;rounded=0;exitX=0.5;exitY=1;exitDx=0;exitDy=0;entryX=0;entryY=0.5;entryDx=0;entryDy=0;" parent="1" source="1hXFx9EmigmVSkQ63bgH-4" target="1hXFx9EmigmVSkQ63bgH-8" edge="1">
          <mxGeometry width="50" height="50" relative="1" as="geometry">
            <mxPoint x="440" y="950" as="sourcePoint" />
            <mxPoint x="490" y="900" as="targetPoint" />
          </mxGeometry>
        </mxCell>
        <mxCell id="BlOGmnbrMbq8oMTxmr42-11" value="Quản lý các thông tin của nhân viên" style="ellipse;whiteSpace=wrap;html=1;" parent="1" vertex="1">
          <mxGeometry x="-120" y="860" width="120" height="80" as="geometry" />
        </mxCell>
        <mxCell id="DSuTDHz4R0uBNqmg7xrg-1" value="Quản lý hợp đồng" style="ellipse;whiteSpace=wrap;html=1;" parent="1" vertex="1">
          <mxGeometry x="-120" y="980" width="120" height="80" as="geometry" />
        </mxCell>
        <mxCell id="DSuTDHz4R0uBNqmg7xrg-2" value="" style="endArrow=classic;html=1;rounded=0;exitX=0;exitY=0.5;exitDx=0;exitDy=0;entryX=1;entryY=0.5;entryDx=0;entryDy=0;" parent="1" source="1hXFx9EmigmVSkQ63bgH-5" target="BlOGmnbrMbq8oMTxmr42-11" edge="1">
          <mxGeometry width="50" height="50" relative="1" as="geometry">
            <mxPoint x="530" y="970" as="sourcePoint" />
            <mxPoint x="10" y="910" as="targetPoint" />
          </mxGeometry>
        </mxCell>
        <mxCell id="DSuTDHz4R0uBNqmg7xrg-4" value="Quản lý tiền lương" style="ellipse;whiteSpace=wrap;html=1;" parent="1" vertex="1">
          <mxGeometry x="-120" y="1100" width="120" height="80" as="geometry" />
        </mxCell>
        <mxCell id="DSuTDHz4R0uBNqmg7xrg-6" value="" style="endArrow=classic;html=1;rounded=0;entryX=1;entryY=0.5;entryDx=0;entryDy=0;exitX=0;exitY=0.5;exitDx=0;exitDy=0;" parent="1" source="1hXFx9EmigmVSkQ63bgH-5" target="DSuTDHz4R0uBNqmg7xrg-1" edge="1">
          <mxGeometry width="50" height="50" relative="1" as="geometry">
            <mxPoint x="380" y="970" as="sourcePoint" />
            <mxPoint x="430" y="920" as="targetPoint" />
          </mxGeometry>
        </mxCell>
        <mxCell id="DSuTDHz4R0uBNqmg7xrg-7" value="" style="endArrow=classic;html=1;rounded=0;exitX=0;exitY=0.5;exitDx=0;exitDy=0;entryX=1;entryY=0.5;entryDx=0;entryDy=0;" parent="1" source="1hXFx9EmigmVSkQ63bgH-5" target="DSuTDHz4R0uBNqmg7xrg-4" edge="1">
          <mxGeometry width="50" height="50" relative="1" as="geometry">
            <mxPoint x="380" y="970" as="sourcePoint" />
            <mxPoint x="430" y="920" as="targetPoint" />
          </mxGeometry>
        </mxCell>
        <mxCell id="DSuTDHz4R0uBNqmg7xrg-8" value="Lưu trữ, quản lý các giấy tờ liên quan" style="ellipse;whiteSpace=wrap;html=1;" parent="1" vertex="1">
          <mxGeometry x="200" y="1160" width="120" height="80" as="geometry" />
        </mxCell>
        <mxCell id="7T4oKW2bF-EINl2WYftm-1" value="" style="endArrow=classic;html=1;rounded=0;entryX=0.5;entryY=0;entryDx=0;entryDy=0;exitX=0.5;exitY=1;exitDx=0;exitDy=0;" parent="1" target="DSuTDHz4R0uBNqmg7xrg-8" edge="1">
          <mxGeometry width="50" height="50" relative="1" as="geometry">
            <mxPoint x="425" y="1090" as="sourcePoint" />
            <mxPoint x="230" y="950" as="targetPoint" />
          </mxGeometry>
        </mxCell>
        <mxCell id="7T4oKW2bF-EINl2WYftm-3" value="Lưu trữ các quyết định về lương, lương thưởng" style="ellipse;whiteSpace=wrap;html=1;" parent="1" vertex="1">
          <mxGeometry x="550" y="1160" width="120" height="80" as="geometry" />
        </mxCell>
        <mxCell id="7T4oKW2bF-EINl2WYftm-4" value="Lưu trữ các biên bản kỷ luật, thông báo chấm dứt hợp đồng" style="ellipse;whiteSpace=wrap;html=1;" parent="1" vertex="1">
          <mxGeometry x="365" y="1160" width="120" height="80" as="geometry" />
        </mxCell>
        <mxCell id="7T4oKW2bF-EINl2WYftm-5" value="" style="endArrow=classic;html=1;rounded=0;exitX=0.5;exitY=1;exitDx=0;exitDy=0;entryX=0.5;entryY=0;entryDx=0;entryDy=0;" parent="1" target="7T4oKW2bF-EINl2WYftm-4" edge="1">
          <mxGeometry width="50" height="50" relative="1" as="geometry">
            <mxPoint x="425" y="1090" as="sourcePoint" />
            <mxPoint x="230" y="950" as="targetPoint" />
          </mxGeometry>
        </mxCell>
        <mxCell id="7T4oKW2bF-EINl2WYftm-6" value="" style="endArrow=classic;html=1;rounded=0;exitX=0.5;exitY=1;exitDx=0;exitDy=0;entryX=0.5;entryY=0;entryDx=0;entryDy=0;" parent="1" target="7T4oKW2bF-EINl2WYftm-3" edge="1">
          <mxGeometry width="50" height="50" relative="1" as="geometry">
            <mxPoint x="425" y="1090" as="sourcePoint" />
            <mxPoint x="230" y="950" as="targetPoint" />
          </mxGeometry>
        </mxCell>
        <mxCell id="7T4oKW2bF-EINl2WYftm-7" value="Quản lý thông tin về chức vụ và vị trí" style="ellipse;whiteSpace=wrap;html=1;" parent="1" vertex="1">
          <mxGeometry x="840" y="840" width="120" height="80" as="geometry" />
        </mxCell>
        <mxCell id="7T4oKW2bF-EINl2WYftm-8" value="Quản lý thời gian làm việc và nghỉ việc" style="ellipse;whiteSpace=wrap;html=1;" parent="1" vertex="1">
          <mxGeometry x="840" y="940" width="120" height="80" as="geometry" />
        </mxCell>
        <mxCell id="7T4oKW2bF-EINl2WYftm-9" value="Quản lý, tạo báo cáo về lịch sử công việc" style="ellipse;whiteSpace=wrap;html=1;" parent="1" vertex="1">
          <mxGeometry x="840" y="1050" width="120" height="80" as="geometry" />
        </mxCell>
        <mxCell id="7T4oKW2bF-EINl2WYftm-10" value="Lưu trữ thông tin về dự án các nhân viên đang thực hiện" style="ellipse;whiteSpace=wrap;html=1;" parent="1" vertex="1">
          <mxGeometry x="840" y="1160" width="120" height="80" as="geometry" />
        </mxCell>
        <mxCell id="7T4oKW2bF-EINl2WYftm-11" value="" style="endArrow=classic;html=1;rounded=0;exitX=1;exitY=0.5;exitDx=0;exitDy=0;entryX=0;entryY=0.5;entryDx=0;entryDy=0;" parent="1" source="1hXFx9EmigmVSkQ63bgH-8" target="7T4oKW2bF-EINl2WYftm-7" edge="1">
          <mxGeometry width="50" height="50" relative="1" as="geometry">
            <mxPoint x="390" y="1100" as="sourcePoint" />
            <mxPoint x="440" y="1050" as="targetPoint" />
          </mxGeometry>
        </mxCell>
        <mxCell id="7T4oKW2bF-EINl2WYftm-13" value="" style="endArrow=classic;html=1;rounded=0;entryX=0;entryY=0.5;entryDx=0;entryDy=0;exitX=1;exitY=0.5;exitDx=0;exitDy=0;" parent="1" source="1hXFx9EmigmVSkQ63bgH-8" target="7T4oKW2bF-EINl2WYftm-8" edge="1">
          <mxGeometry width="50" height="50" relative="1" as="geometry">
            <mxPoint x="390" y="1100" as="sourcePoint" />
            <mxPoint x="440" y="1050" as="targetPoint" />
          </mxGeometry>
        </mxCell>
        <mxCell id="7T4oKW2bF-EINl2WYftm-14" value="" style="endArrow=classic;html=1;rounded=0;entryX=0;entryY=0.5;entryDx=0;entryDy=0;exitX=1;exitY=0.5;exitDx=0;exitDy=0;" parent="1" source="1hXFx9EmigmVSkQ63bgH-8" target="7T4oKW2bF-EINl2WYftm-9" edge="1">
          <mxGeometry width="50" height="50" relative="1" as="geometry">
            <mxPoint x="390" y="1100" as="sourcePoint" />
            <mxPoint x="440" y="1050" as="targetPoint" />
          </mxGeometry>
        </mxCell>
        <mxCell id="7T4oKW2bF-EINl2WYftm-15" value="" style="endArrow=classic;html=1;rounded=0;entryX=0;entryY=0.5;entryDx=0;entryDy=0;exitX=1;exitY=0.5;exitDx=0;exitDy=0;" parent="1" source="1hXFx9EmigmVSkQ63bgH-8" target="7T4oKW2bF-EINl2WYftm-10" edge="1">
          <mxGeometry width="50" height="50" relative="1" as="geometry">
            <mxPoint x="390" y="1100" as="sourcePoint" />
            <mxPoint x="440" y="1050" as="targetPoint" />
          </mxGeometry>
        </mxCell>
      </root>
    </mxGraphModel>
  </diagram>
</mxfile>
